<?xml version="1.0" standalone="no"?>
<!DOCTYPE svg PUBLIC "-//W3C//DTD SVG 20010904//EN"
 "http://www.w3.org/TR/2001/REC-SVG-20010904/DTD/svg10.dtd">
<svg version="1.0" xmlns="http://www.w3.org/2000/svg"
 width="1200.000000pt" height="630.000000pt" viewBox="0 0 1200.000000 630.000000"
 preserveAspectRatio="xMidYMid meet">

<g transform="translate(0.000000,630.000000) scale(0.100000,-0.100000)"
fill="#000000" stroke="none">
<path d="M4690 5274 c-400 -60 -684 -301 -786 -669 -41 -145 -44 -232 -44
-1227 l0 -958 2140 0 2140 0 0 953 c0 973 -3 1074 -41 1222 -77 300 -298 536
-594 633 -186 62 -191 62 -1517 61 -982 -1 -1220 -4 -1298 -15z m2081 -1230
c18 -22 2 -64 -82 -215 -98 -174 -171 -319 -163 -319 13 0 131 100 174 147 25
27 60 70 78 97 25 36 38 47 55 44 30 -4 34 -46 8 -95 -32 -61 -270 -280 -370
-339 -20 -12 -38 -38 -57 -83 -54 -131 -138 -288 -199 -376 -106 -152 -189
-216 -300 -230 -141 -17 -208 132 -130 291 58 118 261 288 466 389 l76 38 69
137 69 137 -110 -104 c-64 -61 -131 -114 -161 -129 -143 -70 -211 33 -134 203
52 115 199 310 274 365 63 45 126 31 112 -25 -3 -13 -36 -59 -73 -102 -157
-180 -209 -259 -198 -296 4 -10 14 -19 24 -19 52 0 233 170 362 340 86 115
118 150 144 160 24 9 51 2 66 -16z m-1230 4 c3 -35 -8 -61 -67 -155 -35 -57
-64 -105 -64 -109 0 -3 23 15 51 40 71 64 190 152 232 172 73 35 115 -20 64
-83 -13 -15 -37 -46 -53 -68 -34 -46 -48 -55 122 76 116 89 152 109 195 109
34 0 69 -24 69 -46 0 -8 -33 -51 -73 -96 -113 -129 -144 -170 -177 -234 -38
-76 -41 -145 -7 -195 35 -51 39 -69 23 -94 -34 -52 -106 -31 -138 41 -17 39
-20 61 -16 125 4 67 11 91 52 176 l47 98 -96 -95 c-100 -98 -123 -128 -176
-227 -16 -32 -41 -68 -55 -80 -49 -44 -91 -20 -79 44 9 49 68 192 107 261 17
29 28 55 25 58 -9 9 -109 -90 -153 -152 -24 -34 -65 -105 -89 -157 -39 -83
-80 -137 -106 -137 -18 0 -39 33 -39 61 0 102 196 514 301 633 31 35 48 46 70
46 16 0 30 -6 30 -12z"/>
<path d="M6183 3202 c-119 -71 -244 -193 -286 -279 -25 -52 -16 -91 26 -111
70 -34 155 63 286 326 28 56 48 102 44 102 -5 0 -36 -17 -70 -38z"/>
<path d="M5633 2335 c-59 -26 -63 -45 -63 -340 l0 -265 45 0 45 0 0 160 0 160
94 0 c90 0 96 1 115 26 39 50 32 54 -94 54 l-116 0 3 68 3 67 168 3 c183 3
193 7 142 57 -23 24 -28 25 -167 25 -99 -1 -153 -5 -175 -15z"/>
<path d="M6870 2205 c0 -38 3 -45 19 -45 23 0 61 45 61 71 0 15 -8 19 -40 19
l-40 0 0 -45z"/>
<path d="M5102 2110 c-45 -28 -52 -54 -52 -185 0 -187 9 -195 230 -195 137 0
152 2 170 20 11 11 20 29 20 40 0 19 -7 20 -164 20 -174 0 -176 0 -176 50 0
17 12 19 149 22 l150 3 30 29 c28 27 31 36 31 88 0 50 -4 62 -29 90 l-29 33
-149 3 c-134 2 -151 1 -181 -18z m296 -72 c16 -16 15 -53 -2 -67 -9 -8 -55
-11 -137 -9 l-124 3 -3 28 c-6 51 9 57 137 57 78 0 121 -4 129 -12z"/>
<path d="M5990 2113 c-48 -33 -49 -39 -50 -215 l0 -168 40 0 39 0 3 158 3 157
128 3 c119 2 127 4 127 22 0 11 -9 29 -20 40 -18 18 -33 20 -133 20 -90 0
-118 -3 -137 -17z"/>
<path d="M6404 2120 c-12 -4 -31 -21 -43 -36 -19 -24 -21 -39 -21 -161 l0
-135 29 -29 29 -29 159 0 c172 0 187 4 198 52 l7 28 -168 2 -169 3 -3 32 -3
32 151 3 152 3 29 33 c24 27 29 41 29 85 0 59 -16 89 -60 112 -32 17 -278 21
-316 5z m284 -82 c7 -7 12 -21 12 -33 0 -40 -18 -45 -152 -45 l-128 0 0 33 c0
52 12 57 140 57 77 0 120 -4 128 -12z"/>
<path d="M6890 2110 c-19 -19 -20 -33 -20 -200 l0 -180 40 0 40 0 0 200 c0
193 -1 200 -20 200 -11 0 -29 -9 -40 -20z"/>
</g>
</svg>
