<?xml version="1.0" standalone="no"?>
<!DOCTYPE svg PUBLIC "-//W3C//DTD SVG 20010904//EN"
 "http://www.w3.org/TR/2001/REC-SVG-20010904/DTD/svg10.dtd">
<svg version="1.0" xmlns="http://www.w3.org/2000/svg"
 width="860.000000pt" height="861.000000pt" viewBox="0 0 860.000000 861.000000"
 preserveAspectRatio="xMidYMid meet">

<g transform="translate(0.000000,861.000000) scale(0.100000,-0.100000)"
fill="#000000" stroke="none">
<path d="M1074 8196 c-310 -51 -559 -226 -683 -481 -71 -144 -86 -217 -85
-400 1 -121 5 -166 23 -230 90 -332 342 -564 691 -635 147 -31 399 -25 540 13
351 92 598 348 656 678 21 118 14 299 -15 412 -83 321 -335 558 -671 632 -102
22 -352 28 -456 11z"/>
<path d="M6129 5840 c-528 -51 -966 -308 -1285 -754 l-64 -89 -2 364 -3 364
-853 0 -853 0 3 -225 c5 -391 -1 -4720 -7 -4827 l-6 -103 860 0 861 0 0 1508
c0 1654 -1 1622 60 1780 89 232 290 458 491 552 124 58 206 73 389 74 142 0
177 -3 250 -22 133 -36 232 -93 326 -186 114 -114 179 -233 228 -418 63 -238
66 -328 66 -1915 l0 -1373 855 0 856 0 -4 1643 c-2 1500 -4 1654 -20 1777 -80
609 -258 1013 -594 1343 -270 267 -608 431 -1013 492 -125 19 -420 27 -541 15z"/>
<path d="M407 5723 c-4 -3 -7 -1164 -7 -2580 l0 -2573 854 0 854 0 5 33 c4 26
2 4868 -2 5065 l-1 62 -848 0 c-467 0 -852 -3 -855 -7z"/>
</g>
</svg>
