<?xml version="1.0" standalone="no"?>
<!DOCTYPE svg PUBLIC "-//W3C//DTD SVG 20010904//EN"
 "http://www.w3.org/TR/2001/REC-SVG-20010904/DTD/svg10.dtd">
<svg version="1.0" xmlns="http://www.w3.org/2000/svg"
 width="512.000000pt" height="512.000000pt" viewBox="0 0 512.000000 512.000000"
 preserveAspectRatio="xMidYMid meet">

<g transform="translate(0.000000,512.000000) scale(0.100000,-0.100000)"
fill="#000000" stroke="none">
<path d="M2005 5089 c-763 -183 -1366 -648 -1715 -1321 -379 -733 -389 -1576
-25 -2313 134 -274 267 -460 478 -674 396 -400 885 -648 1457 -738 145 -23
556 -25 695 -5 569 85 1054 320 1449 702 248 239 451 534 580 843 91 215 159
469 186 689 13 104 0 146 -52 178 -70 42 -120 19 -208 -96 -78 -102 -246 -268
-350 -345 -220 -164 -472 -277 -749 -336 -116 -25 -145 -27 -361 -28 -207 0
-249 3 -349 23 -251 51 -484 148 -702 293 -97 65 -155 114 -264 223 -79 80
-170 182 -208 236 -85 121 -206 363 -251 505 -171 540 -94 1116 210 1583 74
113 151 206 263 317 100 99 119 134 101 189 -23 71 -90 98 -185 75z m-331
-376 c-217 -329 -330 -623 -374 -973 -13 -109 -13 -381 0 -490 49 -395 209
-773 457 -1080 72 -89 254 -267 338 -331 308 -235 665 -382 1045 -429 109 -13
381 -13 490 0 396 49 765 205 1077 456 l92 74 -40 -117 c-135 -397 -413 -788
-747 -1055 -250 -199 -567 -358 -863 -433 -259 -66 -559 -90 -804 -66 -1119
113 -1987 982 -2096 2098 -16 165 -6 445 21 603 111 638 478 1202 1010 1553
58 38 132 83 165 100 57 30 236 115 244 116 2 1 -5 -11 -15 -26z"/>
</g>
</svg>
