<?xml version="1.0" standalone="no"?>
<!DOCTYPE svg PUBLIC "-//W3C//DTD SVG 20010904//EN"
 "http://www.w3.org/TR/2001/REC-SVG-20010904/DTD/svg10.dtd">
<svg version="1.0" xmlns="http://www.w3.org/2000/svg"
 width="229.000000pt" height="220.000000pt" viewBox="0 0 229.000000 220.000000"
 preserveAspectRatio="xMidYMid meet">

<g transform="translate(0.000000,220.000000) scale(0.100000,-0.100000)"
fill="#000000" stroke="none">
<path d="M823 2190 c-228 -32 -411 -126 -564 -289 -269 -285 -331 -694 -159
-1047 134 -277 389 -465 694 -514 101 -17 278 -8 381 19 86 23 201 73 277 123
58 36 18 63 332 -227 131 -121 248 -225 259 -232 12 -7 47 -12 77 -13 101 0
160 59 160 161 0 42 -6 64 -22 88 -13 17 -131 131 -263 252 -132 122 -246 227
-253 233 -10 10 -6 26 22 82 83 162 112 300 103 487 -6 136 -28 228 -81 343
-146 315 -453 521 -805 538 -53 3 -124 1 -158 -4z m240 -336 c222 -49 405
-225 462 -444 23 -89 16 -260 -15 -347 -59 -168 -207 -314 -380 -374 -88 -30
-241 -37 -331 -15 -377 94 -574 509 -405 851 126 253 401 388 669 329z"/>
</g>
</svg>
